<?xml version="1.0" encoding="UTF-8" standalone="no"?>
<!DOCTYPE svg PUBLIC "-//W3C//DTD SVG 1.1//EN" "http://www.w3.org/Graphics/SVG/1.1/DTD/svg11.dtd">
<svg width="100%" height="100%" viewBox="0 0 3113 2161" version="1.1" xmlns="http://www.w3.org/2000/svg" xmlns:xlink="http://www.w3.org/1999/xlink" xml:space="preserve" xmlns:serif="http://www.serif.com/" style="fill-rule:evenodd;clip-rule:evenodd;stroke-linecap:round;stroke-linejoin:round;stroke-miterlimit:1.5;">
    <rect x="0" y="0" width="3112.87" height="2160.59" style="fill:#ebebeb;"/>
    <path d="M81.85,935.294L3040.68,935.294" style="fill:none;stroke:#000;stroke-width:3.13px;"/>
    <path d="M1573.96,978.8L1573.96,2116.61" style="fill:none;stroke:#000;stroke-width:3.13px;"/>
    <text x="68.789px" y="171.483px" style="font-family:'Futura-Medium', 'Futura', sans-serif;font-weight:500;font-size:125px;">DRIVEN B<tspan x="640.139px 715.151px 753.726px 839.846px 927.187px 982.363px " y="171.483px 171.483px 171.483px 171.483px 171.483px 171.483px ">Y DATA</tspan></text>
    <text x="83.093px" y="480.692px" style="font-family:'Futura-Medium', 'Futura', sans-serif;font-weight:500;font-size:83.333px;">v<tspan x="123.539px 173.507px " y="480.692px 480.692px ">an</tspan>illa ja<tspan x="428.593px 469.039px 519.006px " y="480.692px 480.692px 480.692px ">vas</tspan>cr<tspan x="624.963px 645.715px 696.415px 719.202px " y="480.692px 480.692px 480.692px 480.692px ">ipt,</tspan> st<tspan x="827.966px 877.934px " y="480.692px 480.692px ">at</tspan>ic type c<tspan x="1218.63px 1264.33px 1310.43px 1352.3px 1393.8px " y="480.692px 480.692px 480.692px 480.692px 480.692px ">hecki</tspan>ng</text>
    <text x="81.093px" y="1063.02px" style="font-family:'Futura-Medium', 'Futura', sans-serif;font-weight:500;font-size:83.333px;">sk<tspan x="155.068px 201.17px 221.922px 268.756px 292.112px 342.202px " y="1063.02px 1063.02px 1063.02px 1063.02px 1063.02px 1063.02px ">eleton</tspan> code gener<tspan x="843.585px 893.553px " y="1063.02px 1063.02px ">at</tspan>ion</text>
    <text x="1666.29px" y="1064.28px" style="font-family:'Futura-Medium', 'Futura', sans-serif;font-weight:500;font-size:83.333px;">helpful dat<tspan x="2068.88px 2118.85px " y="1064.28px 1064.28px ">a </tspan>descr<tspan x="2346.59px 2367.34px 2418.04px 2440.83px " y="1064.28px 1064.28px 1064.28px 1064.28px ">ipti</tspan>ons</text>
    <text x="72.874px" y="306.401px" style="font-family:'Futura-Medium', 'Futura', sans-serif;font-weight:500;font-size:83.333px;fill:#828282;">dat<tspan x="196.328px 246.295px " y="306.401px 306.401px ">a </tspan>is associat<tspan x="653.928px 700.03px " y="306.401px 306.401px ">ed</tspan> wit<tspan x="885.414px 931.109px " y="306.401px 306.401px ">h </tspan>a sc<tspan x="1108.19px 1153.89px " y="306.401px 306.401px ">he</tspan>ma, helping im<tspan x="1759.56px 1809.53px 1839.96px 1888.38px 1928.83px 1974.93px 2000.65px 2025.1px 2070.8px " y="306.401px 306.401px 306.401px 306.401px 306.401px 306.401px 306.401px 306.401px 306.401px ">prove the</tspan> coding e<tspan x="2468.95px 2515.46px " y="306.401px 306.401px ">xp</tspan>er<tspan x="2643.96px 2664.71px " y="306.401px 306.401px ">ie</tspan>nce</text>
    <g transform="matrix(1,0,0,1,-261.004,-1000.49)">
        <text x="374.485px" y="3072.58px" style="font-family:'Futura-Medium', 'Futura', sans-serif;font-weight:500;font-size:50px;fill:#828282;">aut<tspan x="445.725px 475.779px " y="3072.58px 3072.58px ">o-</tspan>gener<tspan x="617.698px 647.679px 661.79px 689.451px " y="3072.58px 3072.58px 3072.58px 3072.58px ">ated</tspan> code when a</text>
        <text x="1043.85px" y="3072.58px" style="font-family:'Futura-MediumItalic', 'Futura', sans-serif;font-weight:500;font-style:italic;font-size:50px;fill:#828282;">function</text>
        <text x="1237.62px" y="3072.58px" style="font-family:'Futura-Medium', 'Futura', sans-serif;font-weight:500;font-size:50px;fill:#828282;">is connect<tspan x="1460.11px 1487.77px " y="3072.58px 3072.58px ">ed</tspan> t<tspan x="1547.19px 1577.24px " y="3072.58px 3072.58px ">o </tspan>a</text>
        <text x="1638.08px" y="3072.58px" style="font-family:'Futura-MediumItalic', 'Futura', sans-serif;font-weight:500;font-style:italic;font-size:50px;fill:#828282;">plug</text>
    </g>
    <path d="M1861.62,1247.13C1922.44,1251.97 2023.24,1141.06 2088,1142.92" style="fill:none;stroke:#545454;stroke-width:10.42px;"/>
    <rect x="1630.54" y="1401.31" width="1426.39" height="708.472" style="fill:#cacaca;"/>
    <rect x="85.503" y="1156.02" width="1439.18" height="815.725" style="fill:#fff;"/>
    <rect x="110.735" y="601.594" width="221.072" height="221.072" style="fill:#fff;"/>
    <rect x="1641.05" y="1136.31" width="221.072" height="221.072" style="fill:#fff;"/>
    <rect x="676.487" y="604.43" width="221.072" height="221.072" style="fill:#fff;"/>
    <text x="149.402px" y="721.591px" style="font-family:'Futura-Medium', 'Futura', sans-serif;font-weight:500;font-size:41.594px;">function</text>
    <text x="1670.47px" y="1263.96px" style="font-family:'Futura-Medium', 'Futura', sans-serif;font-weight:500;font-size:50px;">mobile</text>
    <rect x="2119.29" y="1262.38" width="927.265" height="95.642" style="fill:#fff;stroke:#898989;stroke-width:4.17px;"/>
    <text x="747.426px" y="733.35px" style="font-family:'Futura-Medium', 'Futura', sans-serif;font-weight:500;font-size:41.594px;">plug</text>
    <path d="M328.022,711.459L680.061,711.459" style="fill:none;stroke:#545454;stroke-width:10.42px;"/>
    <circle cx="112.625" cy="710.524" r="14.738" style="fill:#fffdfd;stroke:#6d6a6a;stroke-width:6.25px;"/>
    <circle cx="683.116" cy="714.89" r="14.738" style="fill:#fffdfd;stroke:#6d6a6a;stroke-width:6.25px;"/>
    <circle cx="328.938" cy="712.936" r="14.738" style="fill:#fffdfd;stroke:#6d6a6a;stroke-width:6.25px;"/>
    <circle cx="1859.25" cy="1247.65" r="14.738" style="fill:#fffdfd;stroke:#6d6a6a;stroke-width:6.25px;"/>
    <ellipse cx="498.867" cy="709.789" rx="43.633" ry="44.317" style="fill:#fd5858;stroke:#fff;stroke-width:8.33px;"/>
    <ellipse cx="1099.81" cy="699.468" rx="43.633" ry="44.317" style="fill:#fd5858;stroke:#fff;stroke-width:8.33px;"/>
    <text x="487.614px" y="730.972px" style="font-family:'Futura-Medium', 'Futura', sans-serif;font-weight:500;font-size:66.751px;fill:#fff;">!</text>
    <text x="1088.56px" y="720.651px" style="font-family:'Futura-Medium', 'Futura', sans-serif;font-weight:500;font-size:66.751px;fill:#fff;">!</text>
    <g transform="matrix(1,0,0,1,2333.16,-5518.55)">
        <text x="-1148.43px" y="6202.12px" style="font-family:'CourierNewPSMT', 'Courier New', monospace;font-size:50px;">the return type of</text>
        <text x="-578.334px" y="6202.12px" style="font-family:'CourierNewPS-BoldMT', 'Courier New', monospace;font-weight:700;font-size:50px;">function</text>
        <text x="-308.291px" y="6202.12px" style="font-family:'CourierNewPSMT', 'Courier New', monospace;font-size:50px;">is incompatible with the expected</text>
        <text x="-1148.43px" y="6252.12px" style="font-family:'CourierNewPSMT', 'Courier New', monospace;font-size:50px;">type of</text>
        <text x="-908.388px" y="6252.12px" style="font-family:'CourierNewPS-BoldMT', 'Courier New', monospace;font-weight:700;font-size:50px;">plug</text>
    </g>
    <text x="1664.98px" y="1478.38px" style="font-family:'Futura-Medium', 'Futura', sans-serif;font-weight:500;font-size:58.333px;">light</text>
    <g transform="matrix(1,0,0,1,1240.49,-6846)">
        <text x="-1107.59px" y="8089.69px" style="font-family:'CourierNewPS-BoldMT', 'Courier New', monospace;font-weight:700;font-size:45.833px;">return {</text>
        <text x="-1052.58px" y="8164.69px" style="font-family:'CourierNewPS-BoldMT', 'Courier New', monospace;font-weight:700;font-size:45.833px;">type:</text>
        <text x="-887.549px" y="8164.69px" style="font-family:'CourierNewPSMT', 'Courier New', monospace;font-size:45.833px;">&quot;set-bulb-on&quot; ||</text>
        <text x="-875.071px" y="8239.69px" style="font-family:'CourierNewPSMT', 'Courier New', monospace;font-size:45.833px;">&quot;set-bulb-hue&quot; ||</text>
        <text x="-875.071px" y="8314.69px" style="font-family:'CourierNewPSMT', 'Courier New', monospace;font-size:45.833px;">&quot;set-bulb-brightness&quot;,</text>
        <text x="-1052.58px" y="8464.69px" style="font-family:'CourierNewPS-BoldMT', 'Courier New', monospace;font-weight:700;font-size:45.833px;">payload:</text>
        <text x="-832.54px" y="8464.69px" style="font-family:'CourierNewPSMT', 'Courier New', monospace;font-size:45.833px;">/*&quot;on&quot; or &quot;off&quot; ||</text>
        <text x="-832.54px" y="8539.69px" style="font-family:'CourierNewPSMT', 'Courier New', monospace;font-size:45.833px;">a hue value (0-360) ||</text>
        <text x="-847.567px" y="8614.69px" style="font-family:'CourierNewPSMT', 'Courier New', monospace;font-size:45.833px;">a brightness value (0-255)*/</text>
        <text x="-1107.59px" y="8689.69px" style="font-family:'CourierNewPS-BoldMT', 'Courier New', monospace;font-weight:700;font-size:45.833px;">}</text>
    </g>
    <path d="M3007.73,1327.58L3024.31,1293.34L2991.15,1293.34L3007.73,1327.58Z" style="fill:#cacaca;stroke:#545454;stroke-width:10.42px;"/>
    <text x="2152.51px" y="1326.97px" style="font-family:'Futura-Medium', 'Futura', sans-serif;font-weight:500;font-size:58.333px;fill:#545454;stroke:#fff;stroke-width:1px;stroke-linecap:butt;stroke-miterlimit:1.41421;">light</text>
    <text x="2125.87px" y="1215.45px" style="font-family:'Futura-Medium', 'Futura', sans-serif;font-weight:500;font-size:58.333px;fill:#545454;stroke:#fff;stroke-width:1px;stroke-linecap:butt;stroke-miterlimit:1.41421;">c<tspan x="2155.18px 2187.17px " y="1215.45px 1215.45px ">ho</tspan>ose sensor</text>
    <g transform="matrix(1,0,0,1,1659.11,-5887.01)">
        <text x="5.077px" y="7435.13px" style="font-family:'Futura-Medium', 'Futura', sans-serif;font-weight:500;font-size:45.833px;fill:#505050;">a measur<tspan x="196.199px 221.555px " y="7435.13px 7435.13px ">e </tspan>of t<tspan x="304.449px 329.581px " y="7435.13px 7435.13px ">he</tspan> ambient light in</text>
        <text x="701.641px" y="7435.13px" style="font-family:'Futura-MediumItalic', 'Futura', sans-serif;font-weight:500;font-style:italic;font-size:45.833px;fill:#505050;">lux</text>
        <text x="763.409px" y="7435.13px" style="font-family:'Futura-Medium', 'Futura', sans-serif;font-weight:500;font-size:45.833px;fill:#505050;">, cap<tspan x="868.906px 881.438px 906.414px 923.243px 948.599px " y="7435.13px 7435.13px 7435.13px 7435.13px 7435.13px ">tured</tspan> b<tspan x="1016.88px 1041.79px " y="7435.13px 7435.13px ">y </tspan>a mobile</text>
        <text x="5.077px" y="7501.8px" style="font-family:'Futura-Medium', 'Futura', sans-serif;font-weight:500;font-size:45.833px;fill:#505050;">de<tspan x="57.132px 80.161px " y="7501.8px 7501.8px ">vi</tspan>ce&apos;s camer<tspan x="309.887px 337.369px " y="7501.8px 7501.8px ">a.</tspan>  The f<tspan x="480.71px 508.259px " y="7501.8px 7501.8px ">ol</tspan>lo<tspan x="557.763px 593.234px " y="7501.8px 7501.8px ">wi</tspan>ng is a descr<tspan x="868.257px 879.67px 907.555px 920.088px " y="7501.8px 7501.8px 7501.8px 7501.8px ">ipti</tspan>on of v<tspan x="1075.87px 1103.35px " y="7501.8px 7501.8px ">al</tspan>ues:</text>
    </g>
    <rect x="1663.36" y="1658.26" width="419.08" height="91.657" style="fill:#545454;"/>
    <rect x="1663.36" y="1763.48" width="419.08" height="91.657" style="fill:#797979;"/>
    <rect x="1663.36" y="1868.7" width="419.08" height="91.657" style="fill:#545454;"/>
    <rect x="1663.36" y="1973.91" width="419.08" height="91.657" style="fill:#797979;"/>
    <rect x="2100.3" y="1659.54" width="926.476" height="91.657" style="fill:#545454;"/>
    <rect x="2100.3" y="1764.76" width="926.476" height="91.657" style="fill:#797979;"/>
    <rect x="2100.3" y="1869.97" width="926.476" height="91.657" style="fill:#545454;"/>
    <rect x="2100.3" y="1975.19" width="926.476" height="91.657" style="fill:#797979;"/>
    <g transform="matrix(0.99998,0.0062808,-0.0062808,0.99998,-38.1453,-16.7769)">
        <text x="1741.91px" y="1726.8px" style="font-family:'Futura-Medium', 'Futura', sans-serif;font-weight:500;font-size:50px;fill:#fff;">0.000<tspan x="1876.92px " y="1726.8px ">1</tspan></text>
    </g>
    <g transform="matrix(0.99998,0.0062808,-0.0062808,0.99998,-38.1367,-19.5233)">
        <text x="2179.17px" y="1726.8px" style="font-family:'Futura-Medium', 'Futura', sans-serif;font-weight:500;font-size:50px;fill:#fff;">st<tspan x="2213.57px 2243.55px 2263.01px 2275.46px " y="1726.8px 1726.8px 1726.8px 1726.8px ">arli</tspan>t sky</text>
    </g>
    <g transform="matrix(0.99998,0.0062808,-0.0062808,0.99998,-37.5056,-16.7648)">
        <text x="1740.31px" y="1828.66px" style="font-family:'Futura-Medium', 'Futura', sans-serif;font-weight:500;font-size:50px;fill:#fff;">0.02</text>
    </g>
    <g transform="matrix(0.99998,0.0062808,-0.0062808,0.99998,-37.4969,-19.5112)">
        <text x="2177.56px" y="1828.66px" style="font-family:'Futura-Medium', 'Futura', sans-serif;font-weight:500;font-size:50px;fill:#fff;">moonless clear night wit<tspan x="2720.95px 2748.36px " y="1828.66px 1828.66px ">h </tspan>airglo<tspan x="2896.41px " y="1828.66px ">w</tspan></text>
    </g>
    <g transform="matrix(0.99998,0.0062808,-0.0062808,0.99998,-36.9157,-16.815)">
        <text x="1748.59px" y="1922.56px" style="font-family:'Futura-Medium', 'Futura', sans-serif;font-weight:500;font-size:50px;fill:#fff;">...</text>
    </g>
    <g transform="matrix(0.99998,0.0062808,-0.0062808,0.99998,-36.9071,-19.5614)">
        <text x="2185.85px" y="1922.56px" style="font-family:'Futura-Medium', 'Futura', sans-serif;font-weight:500;font-size:50px;fill:#fff;">...</text>
    </g>
    <g transform="matrix(0.99998,0.0062808,-0.0062808,0.99998,-36.168,-16.7226)">
        <text x="1734.24px" y="2041.65px" style="font-family:'Futura-Medium', 'Futura', sans-serif;font-weight:500;font-size:50px;fill:#fff;">32000-1<tspan x="1927.29px 1958.14px " y="2041.65px 2041.65px ">00</tspan>000</text>
    </g>
    <g transform="matrix(0.99998,0.0062808,-0.0062808,0.99998,-36.1593,-19.4689)">
        <text x="2171.5px" y="2041.65px" style="font-family:'Futura-Medium', 'Futura', sans-serif;font-weight:500;font-size:50px;fill:#fff;">dir<tspan x="2232.29px 2259.95px " y="2041.65px 2041.65px ">ec</tspan>t sunlight</text>
    </g>
</svg>
