<?xml version="1.0" encoding="UTF-8" standalone="no"?>
<!DOCTYPE svg PUBLIC "-//W3C//DTD SVG 1.1//EN" "http://www.w3.org/Graphics/SVG/1.1/DTD/svg11.dtd">
<svg width="100%" height="100%" viewBox="0 0 3133 2161" version="1.1" xmlns="http://www.w3.org/2000/svg" xmlns:xlink="http://www.w3.org/1999/xlink" xml:space="preserve" xmlns:serif="http://www.serif.com/" style="fill-rule:evenodd;clip-rule:evenodd;stroke-linecap:round;stroke-linejoin:round;stroke-miterlimit:1.5;">
    <rect x="0" y="0" width="3132.38" height="2160.59" style="fill:#ebebeb;"/>
    <text x="95.689px" y="185.286px" style="font-family:'Futura-Medium', 'Futura', sans-serif;font-weight:500;font-size:125px;">SIMPLE ABS<tspan x="798.936px 859.239px 934.495px 1022.69px 1110.28px " y="185.286px 185.286px 185.286px 185.286px 185.286px ">TRACT</tspan>IONS</text>
    <g>
        <rect x="609.215" y="509.732" width="354.331" height="354.331" style="fill:#fff;"/>
        <text x="700.12px" y="949.357px" style="font-family:'Futura-Medium', 'Futura', sans-serif;font-weight:500;font-size:66.667px;">bulbs</text>
        <g>
            <path d="M799.556,739.407C831.025,721.78 870.55,648.643 856.748,615.078C834.097,559.981 731.483,557.624 711.49,615.078C702.807,640.047 724.212,700.247 764.912,739.407L799.556,739.407Z" style="fill:#ebebeb;stroke:#7e7c7c;stroke-width:11.91px;"/>
            <path d="M750.436,734.717L750.436,771.948L781.286,792.687L814.541,771.948L814.541,734.717L750.436,734.717Z" style="fill:#ebebeb;stroke:#7e7c7c;stroke-width:14.58px;stroke-linecap:butt;stroke-miterlimit:1.41421;"/>
            <path d="M793.731,598.205C814.684,598.744 827.867,607.197 827.097,629.864" style="fill:none;stroke:#7e7c7c;stroke-width:11.91px;"/>
        </g>
    </g>
    <g>
        <rect x="1050.32" y="509.834" width="354.331" height="354.331" style="fill:#fff;"/>
        <text x="1196.75px" y="949.357px" style="font-family:'Futura-Medium', 'Futura', sans-serif;font-weight:500;font-size:66.667px;">os</text>
        <path id="Back" d="M1155.96,733.517L1210.21,679.776L1155.96,625.004L1145.63,635.338L1189.55,679.776L1145.63,723.178L1155.96,733.517Z" style="fill:#ebebeb;fill-rule:nonzero;stroke:#7e7c7c;stroke-width:11.18px;stroke-linecap:butt;stroke-miterlimit:1.41421;"/>
        <path d="M1211.75,733.608L1316.04,733.608" style="fill:none;stroke:#7e7c7c;stroke-width:16.78px;"/>
    </g>
    <g>
        <rect x="1491.42" y="509.937" width="354.331" height="354.331" style="fill:#fff;"/>
        <text x="1556.73px" y="949.357px" style="font-family:'Futura-Medium', 'Futura', sans-serif;font-weight:500;font-size:66.667px;">mobile</text>
        <path d="M1659.56,728.387C1659.56,721.775 1654.19,716.411 1647.58,716.411L1643.78,716.411C1637.17,716.411 1631.81,721.775 1631.81,728.387L1631.81,788.938C1631.81,795.551 1637.17,800.922 1643.78,800.922L1647.58,800.922C1654.19,800.922 1659.56,795.551 1659.56,788.938L1659.56,728.387Z" style="fill:#ebebeb;stroke:#7e7c7c;stroke-width:8.33px;stroke-linecap:butt;stroke-miterlimit:1.41421;"/>
        <path d="M1712.95,728.639C1712.95,722.026 1707.58,716.662 1700.97,716.662L1697.18,716.662C1690.57,716.662 1685.19,722.026 1685.19,728.639L1685.19,789.189C1685.19,795.802 1690.57,801.174 1697.18,801.174L1700.97,801.174C1707.58,801.174 1712.95,795.802 1712.95,789.189L1712.95,728.639Z" style="fill:#ebebeb;stroke:#7e7c7c;stroke-width:8.33px;stroke-linecap:butt;stroke-miterlimit:1.41421;"/>
        <path d="M1736.78,651.329C1736.78,641.096 1728.47,632.795 1718.25,632.795L1628.79,632.795C1618.56,632.795 1610.26,641.096 1610.26,651.329L1610.26,727.516C1610.26,737.741 1618.56,746.05 1628.79,746.05L1718.25,746.05C1728.47,746.05 1736.78,737.741 1736.78,727.516L1736.78,651.329Z" style="fill:#ebebeb;stroke:#7e7c7c;stroke-width:8.33px;stroke-linecap:butt;stroke-miterlimit:1.41421;"/>
        <path d="M1596.27,643.389C1596.27,636.776 1590.9,631.412 1584.28,631.412L1580.49,631.412C1573.88,631.412 1568.51,636.776 1568.51,643.389L1568.51,703.939C1568.51,710.552 1573.88,715.924 1580.49,715.924L1584.28,715.924C1590.9,715.924 1596.27,710.552 1596.27,703.939L1596.27,643.389Z" style="fill:#ebebeb;stroke:#7e7c7c;stroke-width:8.33px;stroke-linecap:butt;stroke-miterlimit:1.41421;"/>
        <path d="M1721.79,556.726C1722.9,554.417 1721.93,551.653 1719.63,550.546L1718.31,549.917C1716,548.81 1713.23,549.784 1712.13,552.085L1698.42,580.648C1697.32,582.949 1698.29,585.721 1700.6,586.821L1701.92,587.457C1704.22,588.564 1706.99,587.591 1708.09,585.289L1721.79,556.726L1721.79,556.726Z" style="fill:#ebebeb;stroke:#7e7c7c;stroke-width:8.33px;stroke-linecap:butt;stroke-miterlimit:1.41421;"/>
        <path d="M1616.29,558.116C1615.18,555.815 1616.15,553.043 1618.45,551.943L1619.78,551.307C1622.08,550.2 1624.85,551.174 1625.95,553.475L1639.66,582.038C1640.77,584.347 1639.79,587.111 1637.49,588.219L1636.16,588.847C1633.86,589.954 1631.1,588.98 1629.99,586.679L1616.29,558.116L1616.29,558.116Z" style="fill:#ebebeb;stroke:#7e7c7c;stroke-width:8.33px;stroke-linecap:butt;stroke-miterlimit:1.41421;"/>
        <path d="M1777.32,644.858C1777.32,638.245 1771.96,632.873 1765.35,632.873L1761.55,632.873C1754.93,632.873 1749.57,638.245 1749.57,644.858L1749.57,705.408C1749.57,712.021 1754.93,717.385 1761.55,717.385L1765.35,717.385C1771.96,717.385 1777.32,712.021 1777.32,705.408L1777.32,644.858Z" style="fill:#ebebeb;stroke:#7e7c7c;stroke-width:8.33px;stroke-linecap:butt;stroke-miterlimit:1.41421;"/>
        <path d="M1733.08,619.755L1611.15,619.755C1615.66,587.831 1641.26,563.335 1672.12,563.335C1702.98,563.335 1728.57,587.83 1733.08,619.755ZM1641.26,587.351C1644.61,587.351 1647.33,590.501 1647.33,594.38C1647.33,598.26 1644.61,601.409 1641.26,601.409C1637.91,601.409 1635.18,598.26 1635.18,594.38C1635.18,590.501 1637.91,587.351 1641.26,587.351ZM1696.47,587.351C1699.83,587.351 1702.55,590.501 1702.55,594.38C1702.55,598.26 1699.83,601.409 1696.47,601.409C1693.12,601.409 1690.4,598.26 1690.4,594.38C1690.4,590.501 1693.12,587.351 1696.47,587.351Z" style="fill:#ebebeb;stroke:#7e7c7c;stroke-width:6.25px;stroke-linecap:butt;stroke-miterlimit:1.41421;"/>
    </g>
    <g>
        <rect x="1932.53" y="510.039" width="354.331" height="354.331" style="fill:#fff;"/>
        <text x="2016.26px" y="949.357px" style="font-family:'Futura-Medium', 'Futura', sans-serif;font-weight:500;font-size:66.667px;">twitt<tspan x="2139.73px 2176.61px " y="949.357px 949.357px ">er</tspan></text>
        <path d="M2199.8,648.125C2194.15,719.16 2172.44,742.102 2115.69,757.442C2075.13,768.224 2039.39,763.804 2010.4,745.849C2034.59,748.9 2055.37,745.436 2068.03,726.417C2054.03,722.135 2040.47,716.805 2030.71,702.741L2047.77,697.358C2021.37,685.007 2012.9,678.981 2010.4,655.78L2030.71,655.78C2023.54,656.047 2011.29,629.374 2014.66,600.911C2043.84,631.186 2083.78,645.28 2107.62,644.141C2121.63,641.678 2116.32,626.675 2121.43,611.051C2130.89,582.183 2153.63,587.268 2185.26,600.911L2219.93,600.911L2194.75,615.808L2225.47,615.808C2208.55,622.4 2195.74,631.439 2199.8,648.125L2199.8,648.125Z" style="fill:#ebebeb;stroke:#7e7c7c;stroke-width:10.42px;stroke-linecap:butt;stroke-miterlimit:1.41421;"/>
    </g>
    <g>
        <rect x="2373.63" y="510.142" width="354.331" height="354.331" style="fill:#fff;"/>
        <text x="2393.85px" y="949.357px" style="font-family:'Futura-Medium', 'Futura', sans-serif;font-weight:500;font-size:66.667px;">smar<tspan x="2540.95px 2559.18px " y="949.357px 949.357px ">tp</tspan>lugs</text>
        <g>
            <path d="M2590.1,589.998C2585.16,585.06 2577.14,585.06 2572.2,589.998L2512.68,649.519C2507.74,654.457 2507.74,662.474 2512.68,667.411C2517.62,672.349 2525.64,672.349 2530.58,667.411L2590.1,607.89C2595.03,602.952 2595.03,594.935 2590.1,589.998Z" style="fill:#ebebeb;stroke:#7e7c7c;stroke-width:10.42px;"/>
            <path d="M2642.6,640.585C2637.66,635.647 2629.64,635.647 2624.7,640.585L2565.18,700.106C2560.24,705.044 2560.24,713.061 2565.18,717.999C2570.12,722.936 2578.14,722.936 2583.07,717.999L2642.6,658.477C2647.53,653.539 2647.53,645.522 2642.6,640.585Z" style="fill:#ebebeb;stroke:#7e7c7c;stroke-width:10.42px;"/>
            <path d="M2538.6,685.528C2533.66,680.59 2525.64,680.59 2520.71,685.528L2461.18,745.049C2461.62,762.284 2461.18,762.941 2461.18,762.941C2461.18,762.941 2461.57,761.503 2479.08,762.941L2538.6,703.42C2543.54,698.482 2543.54,690.465 2538.6,685.528Z" style="fill:#ebebeb;stroke:#7e7c7c;stroke-width:10.42px;"/>
            <path d="M2519.52,607.295L2627.03,714.806C2612.68,731.765 2590.79,742.61 2566.28,742.61C2523.1,742.61 2488.05,708.954 2488.05,667.499C2488.05,642.871 2500.42,620.995 2519.52,607.295Z" style="fill:#ebebeb;stroke:#7e7c7c;stroke-width:10.42px;"/>
        </g>
    </g>
    <g>
        <rect x="609.215" y="1029.08" width="354.331" height="354.331" style="fill:#fff;"/>
        <text x="702.285px" y="1468.89px" style="font-family:'Futura-Medium', 'Futura', sans-serif;font-weight:500;font-size:66.667px;">c<tspan x="735.781px 772.337px 812.311px 839.655px " y="1468.89px 1468.89px 1468.89px 1468.89px ">hart</tspan></text>
        <rect x="687.318" y="1116.24" width="26.026" height="166.229" style="fill:#ebebeb;stroke:#7e7c7c;stroke-width:8.33px;"/>
        <rect x="732.948" y="1169.13" width="25.116" height="113.341" style="fill:#ebebeb;stroke:#7e7c7c;stroke-width:8.33px;"/>
        <rect x="777.956" y="1189.18" width="25.449" height="93.297" style="fill:#ebebeb;stroke:#7e7c7c;stroke-width:8.33px;"/>
        <rect x="823.131" y="1208.26" width="25.449" height="74.212" style="fill:#ebebeb;stroke:#7e7c7c;stroke-width:8.33px;"/>
        <rect x="868.472" y="1228.9" width="25.116" height="53.577" style="fill:#ebebeb;stroke:#7e7c7c;stroke-width:8.33px;"/>
    </g>
    <g>
        <rect x="1050.32" y="1029.19" width="354.331" height="354.331" style="fill:#fff;"/>
        <text x="1047.75px" y="1468.89px" style="font-family:'Futura-Medium', 'Futura', sans-serif;font-weight:500;font-size:66.667px;">visualisation</text>
        <path d="M1335.11,1146.87C1335.11,1133.38 1324.15,1122.42 1310.65,1122.42L1141.05,1122.42C1127.56,1122.42 1116.6,1133.38 1116.6,1146.87L1116.6,1272.86C1116.6,1286.36 1127.56,1297.31 1141.05,1297.31L1310.65,1297.31C1324.15,1297.31 1335.11,1286.36 1335.11,1272.86L1335.11,1146.87Z" style="fill:#fff;stroke:#7e7c7c;stroke-width:10.03px;"/>
        <path d="M1145.82,1246.91L1179.99,1208.49L1197.17,1229.35L1259.66,1167.12L1308.32,1208.49L1308.32,1264.43L1145.82,1264.43L1145.82,1246.91Z" style="fill:#ebebeb;stroke:#7e7c7c;stroke-width:10.42px;stroke-linecap:butt;stroke-miterlimit:1.41421;"/>
        <ellipse cx="1162.97" cy="1175.54" rx="19.471" ry="20.101" style="fill:#fff;stroke:#7e7c7c;stroke-width:8.33px;stroke-linecap:butt;stroke-miterlimit:1.41421;"/>
    </g>
    <g>
        <rect x="1491.42" y="1029.29" width="354.331" height="354.331" style="fill:#fff;"/>
        <text x="1618.92px" y="1468.89px" style="font-family:'Futura-Medium', 'Futura', sans-serif;font-weight:500;font-size:66.667px;">list</text>
        <g>
            <g>
                <rect x="1634.12" y="1124.8" width="155.852" height="35.353" style="fill:#ebebeb;stroke:#7e7c7c;stroke-width:10.42px;"/>
                <rect x="1554.32" y="1124.8" width="58.48" height="35.484" style="fill:#ebebeb;stroke:#7e7c7c;stroke-width:10.42px;"/>
            </g>
            <g>
                <rect x="1634.02" y="1181.49" width="155.852" height="35.353" style="fill:#ebebeb;stroke:#7e7c7c;stroke-width:10.42px;"/>
                <rect x="1554.21" y="1181.49" width="58.48" height="35.484" style="fill:#ebebeb;stroke:#7e7c7c;stroke-width:10.42px;"/>
            </g>
            <g>
                <rect x="1633.91" y="1238.18" width="155.852" height="35.353" style="fill:#ebebeb;stroke:#7e7c7c;stroke-width:10.42px;"/>
                <rect x="1554.11" y="1238.18" width="58.48" height="35.484" style="fill:#ebebeb;stroke:#7e7c7c;stroke-width:10.42px;"/>
            </g>
        </g>
    </g>
    <g>
        <rect x="1932.53" y="1029.39" width="354.331" height="354.331" style="fill:#fff;"/>
        <text x="1990.95px" y="1468.89px" style="font-family:'Futura-Medium', 'Futura', sans-serif;font-weight:500;font-size:66.667px;">function</text>
        <g>
            <path id="Back3" d="M2156.61,1267.21L2214.12,1204.82L2156.61,1141.24L2145.65,1153.24L2192.21,1204.82L2145.65,1255.21L2156.61,1267.21Z" style="fill:#ebebeb;fill-rule:nonzero;stroke:#7e7c7c;stroke-width:12.32px;stroke-linecap:butt;stroke-miterlimit:1.41421;"/>
            <path id="Back4" d="M2069.18,1261.34L2011.67,1198.96L2069.18,1135.37L2080.13,1147.37L2033.58,1198.96L2080.13,1249.34L2069.18,1261.34Z" style="fill:#ebebeb;fill-rule:nonzero;stroke:#7e7c7c;stroke-width:12.32px;stroke-linecap:butt;stroke-miterlimit:1.41421;"/>
            <path d="M2092.65,1272.93L2128.24,1127.05" style="fill:#ebebeb;stroke:#7e7c7c;stroke-width:12.32px;"/>
        </g>
    </g>
    <g>
        <rect x="2373.63" y="1029.49" width="354.331" height="354.331" style="fill:#fff;"/>
        <text x="2453.69px" y="1468.89px" style="font-family:'Futura-Medium', 'Futura', sans-serif;font-weight:500;font-size:66.667px;">e<tspan x="2489.3px 2526.51px 2544.74px 2569.22px 2609.19px " y="1468.89px 1468.89px 1468.89px 1468.89px 1468.89px ">xtrac</tspan>t</text>
        <g>
            <g>
                <rect x="2518.61" y="1258.16" width="96.054" height="40.61" style="fill:#ebebeb;stroke:#7e7c7c;stroke-width:8.33px;"/>
                <path d="M2526.49,1257.45C2516.92,1238.82 2480.12,1217.62 2466.81,1209.58C2459.09,1204.9 2460.53,1187 2466.81,1182.49C2473.09,1177.98 2496.25,1189.26 2504.47,1182.49C2510.97,1177.15 2504.67,1120.36 2513.53,1109.49C2520.26,1101.2 2538.95,1099.68 2544.77,1105.36C2546,1106.56 2546.23,1108.3 2547.28,1109.49C2552.65,1115.52 2542.88,1154.27 2556.81,1156.69C2575.94,1160.02 2622.78,1155.22 2630.1,1175.17C2636.71,1193.19 2616.3,1216.83 2611.11,1250.11C2606.46,1279.92 2529.94,1264.18 2526.49,1257.45L2526.49,1257.45Z" style="fill:#ebebeb;stroke:#7e7c7c;stroke-width:8.33px;"/>
            </g>
            <path d="M2603.91,1281.04C2603.91,1279.64 2602.78,1278.5 2601.38,1278.5L2594.8,1278.5C2593.4,1278.5 2592.26,1279.64 2592.26,1281.04L2592.26,1286.12C2592.26,1287.52 2593.4,1288.65 2594.8,1288.65L2601.38,1288.65C2602.78,1288.65 2603.91,1287.52 2603.91,1286.12L2603.91,1281.04Z" style="fill:#7e7c7c;"/>
        </g>
    </g>
    <g>
        <rect x="609.215" y="1548.44" width="354.331" height="354.331" style="fill:#fff;"/>
        <text x="700.12px" y="1987.85px" style="font-family:'Futura-Medium', 'Futura', sans-serif;font-weight:500;font-size:66.667px;">bulbs</text>
        <g>
            <path d="M803.384,1780.15C834.853,1762.52 874.378,1689.39 860.576,1655.82C837.924,1600.72 735.31,1598.37 715.317,1655.82C706.634,1680.79 728.04,1740.99 768.74,1780.15L803.384,1780.15Z" style="fill:#ebebeb;stroke:#7e7c7c;stroke-width:11.91px;"/>
            <path d="M754.263,1775.46L754.263,1812.69L785.113,1833.43L818.368,1812.69L818.368,1775.46L754.263,1775.46Z" style="fill:#ebebeb;stroke:#7e7c7c;stroke-width:14.58px;stroke-linecap:butt;stroke-miterlimit:1.41421;"/>
            <path d="M797.558,1638.95C818.511,1639.49 831.694,1647.94 830.924,1670.61" style="fill:none;stroke:#7e7c7c;stroke-width:11.91px;"/>
        </g>
    </g>
    <g>
        <rect x="1050.32" y="1548.54" width="354.331" height="354.331" style="fill:#fff;"/>
        <text x="1066.3px" y="1987.85px" style="font-family:'Futura-Medium', 'Futura', sans-serif;font-weight:500;font-size:66.667px;">dashboar<tspan x="1354.35px " y="1987.85px ">d</tspan></text>
        <path d="M1304.79,1638.83C1304.79,1622.37 1290.27,1609.01 1272.37,1609.01L1207.51,1609.01C1189.61,1609.01 1175.09,1622.37 1175.09,1638.83L1175.09,1781.1C1175.09,1797.55 1189.61,1810.91 1207.51,1810.91L1272.37,1810.91C1290.27,1810.91 1304.79,1797.55 1304.79,1781.1L1304.79,1638.83L1304.79,1638.83Z" style="fill:#fff;stroke:#7e7c7c;stroke-width:12.5px;stroke-linecap:butt;stroke-miterlimit:1.41421;"/>
        <rect x="1198.86" y="1634.83" width="84.191" height="127.703" style="fill:#ebebeb;stroke:#7e7c7c;stroke-width:10.42px;stroke-linecap:butt;stroke-miterlimit:1.41421;"/>
        <rect x="1229.4" y="1776.65" width="20.253" height="20.935" style="fill:#7e7c7c;"/>
    </g>
    <g>
        <rect x="1491.42" y="1548.64" width="354.331" height="354.331" style="fill:#fff;"/>
        <text x="1571.83px" y="1987.85px" style="font-family:'Futura-Medium', 'Futura', sans-serif;font-weight:500;font-size:66.667px;">e<tspan x="1607.44px 1644.65px " y="1987.85px 1987.85px ">xp</tspan>or<tspan x="1752.04px " y="1987.85px ">t</tspan></text>
        <path id="path4640" d="M1613.03,1709.16C1626.67,1709.25 1619.93,1652.16 1664.85,1650.29C1701.9,1648.75 1693.07,1675.52 1710.36,1682.95C1720.15,1687.16 1725.43,1676.94 1741.99,1686.7C1764.97,1700.24 1753.99,1721.03 1760.89,1734.86C1763.03,1739.15 1783.09,1735.4 1786.64,1757.9C1793.6,1801.93 1710.48,1792.93 1667.01,1793C1634.85,1793.05 1576.59,1803.82 1565.6,1772.81C1556.05,1745.9 1585.22,1709 1613.03,1709.16L1613.03,1709.16Z" style="fill:#ebebeb;stroke:#7e7c7c;stroke-width:12.5px;stroke-linecap:butt;stroke-miterlimit:1.41421;"/>
    </g>
    <g>
        <rect x="1932.53" y="1548.74" width="354.331" height="354.331" style="fill:#fff;"/>
        <text x="2012.38px" y="1987.85px" style="font-family:'Futura-Medium', 'Futura', sans-serif;font-weight:500;font-size:66.667px;">twitt<tspan x="2135.85px 2172.73px " y="1987.85px 1987.85px ">er</tspan></text>
        <path d="M2197.42,1689.58C2191.77,1760.61 2170.05,1783.55 2113.3,1798.89C2072.74,1809.68 2037,1805.26 2008.02,1787.3C2032.2,1790.35 2052.98,1786.89 2065.64,1767.87C2051.64,1763.59 2038.09,1758.26 2028.32,1744.19L2045.38,1738.81C2018.99,1726.46 2010.51,1720.43 2008.02,1697.23L2028.32,1697.23C2021.15,1697.5 2008.91,1670.83 2012.27,1642.36C2041.45,1672.64 2081.39,1686.73 2105.23,1685.59C2119.24,1683.13 2113.93,1668.13 2119.05,1652.5C2128.5,1623.64 2151.24,1628.72 2182.87,1642.36L2217.54,1642.36L2192.36,1657.26L2223.09,1657.26C2206.16,1663.85 2193.36,1672.89 2197.42,1689.58L2197.42,1689.58Z" style="fill:#ebebeb;stroke:#7e7c7c;stroke-width:10.42px;stroke-linecap:butt;stroke-miterlimit:1.41421;"/>
    </g>
    <g>
        <rect x="2373.63" y="1548.85" width="354.331" height="354.331" style="fill:#fff;"/>
        <text x="2393.85px" y="1987.85px" style="font-family:'Futura-Medium', 'Futura', sans-serif;font-weight:500;font-size:66.667px;">smar<tspan x="2540.95px 2559.18px " y="1987.85px 1987.85px ">tp</tspan>lugs</text>
        <g>
            <path d="M2590.37,1631.29C2585.43,1626.36 2577.42,1626.36 2572.48,1631.29L2512.96,1690.82C2508.02,1695.75 2508.02,1703.77 2512.96,1708.71C2517.89,1713.64 2525.91,1713.64 2530.85,1708.71L2590.37,1649.19C2595.31,1644.25 2595.31,1636.23 2590.37,1631.29Z" style="fill:#ebebeb;stroke:#7e7c7c;stroke-width:10.42px;"/>
            <path d="M2642.87,1681.88C2637.93,1676.94 2629.92,1676.94 2624.98,1681.88L2565.46,1741.4C2560.52,1746.34 2560.52,1754.36 2565.46,1759.3C2570.39,1764.23 2578.41,1764.23 2583.35,1759.3L2642.87,1699.77C2647.81,1694.84 2647.81,1686.82 2642.87,1681.88Z" style="fill:#ebebeb;stroke:#7e7c7c;stroke-width:10.42px;"/>
            <path d="M2538.87,1726.82C2533.94,1721.89 2525.92,1721.89 2520.98,1726.82L2461.46,1786.35C2461.89,1803.58 2461.46,1804.24 2461.46,1804.24C2461.46,1804.24 2461.84,1802.8 2479.35,1804.24L2538.87,1744.72C2543.81,1739.78 2543.81,1731.76 2538.87,1726.82Z" style="fill:#ebebeb;stroke:#7e7c7c;stroke-width:10.42px;"/>
            <path d="M2519.79,1648.59L2627.3,1756.1C2612.96,1773.06 2591.07,1783.91 2566.56,1783.91C2523.38,1783.91 2488.32,1750.25 2488.32,1708.8C2488.32,1684.17 2500.7,1662.29 2519.79,1648.59Z" style="fill:#ebebeb;stroke:#7e7c7c;stroke-width:10.42px;"/>
        </g>
    </g>
    <text x="89.34px" y="726.716px" style="font-family:'Futura-Medium', 'Futura', sans-serif;font-weight:500;font-size:83.333px;">dat<tspan x="212.794px 262.762px 296.575px 319.931px 370.021px 400.62px 446.721px " y="726.716px 726.716px 726.716px 726.716px 726.716px 726.716px 726.716px ">astores</tspan></text>
    <text x="106.322px" y="319.222px" style="font-family:'Futura-Medium', 'Futura', sans-serif;font-weight:500;font-size:83.333px;fill:#828282;">dat<tspan x="229.775px 279.743px 313.556px 336.912px 387.002px 417.601px 463.703px " y="319.222px 319.222px 319.222px 319.222px 319.222px 319.222px 319.222px ">astores</tspan>, pr<tspan x="629.352px 679.442px " y="319.222px 319.222px ">oc</tspan>essors and outputs map t<tspan x="1655.92px 1706.01px 1731.73px 1756.18px 1801.88px " y="319.222px 319.222px 319.222px 319.222px 319.222px ">o the</tspan> dat<tspan x="1997.15px 2047.12px 2097.09px 2145.18px 2191.69px " y="319.222px 319.222px 319.222px 319.222px 319.222px ">abox </tspan>platf<tspan x="2386.64px 2436.72px 2469.16px 2535.07px " y="319.222px 319.222px 319.222px 319.222px ">orm </tspan>ar<tspan x="2641.19px 2683.06px 2728.76px 2749.51px 2773.03px 2819.13px " y="319.222px 319.222px 319.222px 319.222px 319.222px 319.222px ">chitec</tspan>tur<tspan x="2957.64px " y="319.222px ">e</tspan></text>
    <text x="96.952px" y="1242.71px" style="font-family:'Futura-Medium', 'Futura', sans-serif;font-weight:500;font-size:83.333px;">pr<tspan x="177.356px 227.445px " y="1242.71px 1242.71px ">oc</tspan>essors</text>
    <text x="104.564px" y="1758.71px" style="font-family:'Futura-Medium', 'Futura', sans-serif;font-weight:500;font-size:83.333px;">outputs</text>
</svg>
